<?xml version="1.0" encoding="UTF-8" standalone="no"?>
<!-- Generator: Adobe Illustrator 16.0.0, SVG Export Plug-In . SVG Version: 6.00 Build 0)  -->

<svg
   xmlns:dc="http://purl.org/dc/elements/1.1/"
   xmlns:cc="http://creativecommons.org/ns#"
   xmlns:rdf="http://www.w3.org/1999/02/22-rdf-syntax-ns#"
   xmlns:svg="http://www.w3.org/2000/svg"
   xmlns="http://www.w3.org/2000/svg"
   xmlns:sodipodi="http://sodipodi.sourceforge.net/DTD/sodipodi-0.dtd"
   xmlns:inkscape="http://www.inkscape.org/namespaces/inkscape"
   version="1.1"
   id="Layer_1"
   x="0px"
   y="0px"
   width="64px"
   height="64px"
   viewBox="0 0 64 64"
   enable-background="new 0 0 64 64"
   xml:space="preserve"
   inkscape:version="0.91 r13725"
   sodipodi:docname="arrow_right_orange.svg"><metadata
   id="metadata3347"><rdf:RDF><cc:Work
       rdf:about=""><dc:format>image/svg+xml</dc:format><dc:type
         rdf:resource="http://purl.org/dc/dcmitype/StillImage" /><dc:title></dc:title></cc:Work></rdf:RDF></metadata><defs
   id="defs3345" /><sodipodi:namedview
   pagecolor="#ffffff"
   bordercolor="#666666"
   borderopacity="1"
   objecttolerance="10"
   gridtolerance="10"
   guidetolerance="10"
   inkscape:pageopacity="0"
   inkscape:pageshadow="2"
   inkscape:window-width="1920"
   inkscape:window-height="1017"
   id="namedview3343"
   showgrid="false"
   inkscape:zoom="256"
   inkscape:cx="-10.610523"
   inkscape:cy="53.21272"
   inkscape:window-x="-8"
   inkscape:window-y="-8"
   inkscape:window-maximized="1"
   inkscape:current-layer="Layer_1" />
<g
   id="g3337">
	<line
   fill="none"
   stroke="#000000"
   stroke-width="2"
   stroke-miterlimit="10"
   x1="0"
   y1="32"
   x2="63"
   y2="32"
   id="line3339" />
</g>
<polyline
   fill="none"
   stroke="#000000"
   stroke-width="2"
   stroke-linejoin="bevel"
   stroke-miterlimit="10"
   points="54,41 63,32   54,23 "
   id="polyline3341" />
<path
   style="fill:#f74300;stroke:none;stroke-width:1px;stroke-linecap:butt;stroke-linejoin:miter;stroke-opacity:1;fill-opacity:1"
   d="m 54.004062,40.960828 -0.643414,-0.646773 3.628464,-3.629056 c 1.995656,-1.99598 3.628465,-3.654575 3.628465,-3.685768 0,-0.03119 -13.630404,-0.05671 -30.289786,-0.05671 l -30.28978625,0 0,-0.950119 0,-0.950119 30.30849425,0 30.308495,0 -3.667813,-3.668398 -3.667813,-3.668397 0.685408,-0.682232 0.685406,-0.682231 4.483888,4.483404 4.483887,4.483404 0,0.684569 0,0.684569 -4.465797,4.465316 c -2.456189,2.455924 -4.483548,4.465317 -4.505242,4.465317 -0.02169,0 -0.328979,-0.291048 -0.682856,-0.646773 z"
   id="path4149"
   inkscape:connector-curvature="0" /><path
   style="fill:#f74300;fill-opacity:1"
   d=""
   id="path4151"
   inkscape:connector-curvature="0" /><path
   style="fill:#f74300;fill-opacity:1"
   d="m 54.059975,40.940836 c -0.32301,-0.324915 -0.587186,-0.624202 -0.587058,-0.665083 1.52e-4,-0.04088 1.607729,-1.681515 3.572447,-3.645856 1.964717,-1.96434 3.572213,-3.597594 3.572213,-3.629454 0,-0.03186 -13.630404,-0.05792 -30.289786,-0.05792 l -30.28978625,0 0,-0.950119 0,-0.950119 30.34649925,0 30.3465,0 -3.686168,-3.690008 -3.686166,-3.690008 0.684085,-0.640482 0.684086,-0.640482 4.465558,4.480351 4.465558,4.480351 0,0.629478 0,0.629478 -4.465797,4.465317 c -2.456189,2.455924 -4.483595,4.465316 -4.505347,4.465316 -0.02175,0 -0.303828,-0.26584 -0.626838,-0.590755 z"
   id="path4153"
   inkscape:connector-curvature="0" /><path
   style="fill:#f74300;fill-opacity:1"
   d="m 54.00077,40.996582 -0.705071,-0.705079 1.58398,-1.583984 1.583979,-1.583983 0.04297,0 0.04297,0 -1.595472,1.595476 -1.595472,1.595475 0.366706,0.368392 c 0.627504,0.630389 0.933521,0.925032 0.960739,0.925032 0.007,0 0.09525,-0.08354 0.297096,-0.281102 0.515985,-0.505036 1.635937,-1.616066 3.097085,-3.072413 l 1.132628,-1.128907 0.03749,-0.0011 0.03749,-0.0011 -2.289062,2.289165 c -1.258983,1.259041 -2.289942,2.289165 -2.291019,2.289165 -0.0011,0 -0.319241,-0.317285 -0.70703,-0.705079 z"
   id="path4155"
   inkscape:connector-curvature="0" /><path
   style="fill:#f74300;fill-opacity:1"
   d=""
   id="path4157"
   inkscape:connector-curvature="0" /></svg>