<?xml version="1.0" encoding="UTF-8" standalone="no"?>
<!-- Generator: Adobe Illustrator 16.0.0, SVG Export Plug-In . SVG Version: 6.00 Build 0)  -->

<svg
   xmlns:dc="http://purl.org/dc/elements/1.1/"
   xmlns:cc="http://creativecommons.org/ns#"
   xmlns:rdf="http://www.w3.org/1999/02/22-rdf-syntax-ns#"
   xmlns:svg="http://www.w3.org/2000/svg"
   xmlns="http://www.w3.org/2000/svg"
   xmlns:sodipodi="http://sodipodi.sourceforge.net/DTD/sodipodi-0.dtd"
   xmlns:inkscape="http://www.inkscape.org/namespaces/inkscape"
   version="1.1"
   id="Layer_1"
   x="0px"
   y="0px"
   width="64px"
   height="64px"
   viewBox="0 0 64 64"
   enable-background="new 0 0 64 64"
   xml:space="preserve"
   inkscape:version="0.91 r13725"
   sodipodi:docname="page_icon.svg"><metadata
   id="metadata15"><rdf:RDF><cc:Work
       rdf:about=""><dc:format>image/svg+xml</dc:format><dc:type
         rdf:resource="http://purl.org/dc/dcmitype/StillImage" /><dc:title></dc:title></cc:Work></rdf:RDF></metadata><defs
   id="defs13" /><sodipodi:namedview
   pagecolor="#ffffff"
   bordercolor="#666666"
   borderopacity="1"
   objecttolerance="10"
   gridtolerance="10"
   guidetolerance="10"
   inkscape:pageopacity="0"
   inkscape:pageshadow="2"
   inkscape:window-width="1364"
   inkscape:window-height="788"
   id="namedview11"
   showgrid="false"
   inkscape:zoom="5.12"
   inkscape:cx="33.269828"
   inkscape:cy="52.454055"
   inkscape:window-x="0"
   inkscape:window-y="0"
   inkscape:window-maximized="0"
   inkscape:current-layer="Layer_1" />
<g
   id="g3"
   style="fill:#ff6600">
	<circle
   fill="none"
   stroke="#000000"
   stroke-width="2"
   stroke-miterlimit="10"
   cx="32"
   cy="19.001"
   r="4"
   id="circle5"
   style="fill:#ff6600" />
	<path
   fill="none"
   stroke="#000000"
   stroke-width="2"
   stroke-miterlimit="10"
   d="M45,21.023C44.968,13.276,39.181,7,32,7   s-13,6.276-13,14.023C19,31.046,31.979,47,31.979,47S45.043,31.046,45,21.023z"
   id="path7"
   style="fill:#ff6600" />
</g>
<polyline
   fill="none"
   stroke="#000000"
   stroke-width="2"
   stroke-miterlimit="10"
   points="21,37 12,37 1,57 32,57 63,57 52,37 43,37   "
   id="polyline9" />
<path
   style="fill:#ff6600;fill-opacity:1"
   d="m -0.32542373,57.77335 c 0,-0.08364 2.64394303,-4.964996 5.87542913,-10.847457 l 5.8754296,-10.695385 4.700842,0 4.700842,0 0,0.81356 0,0.813559 -4.165672,0 -4.165672,0 -4.9357492,8.977675 c -2.7146625,4.937721 -4.8870208,9.026403 -4.8274631,9.085961 0.059558,0.05956 13.2889133,0.07723 29.3985663,0.03927 l 29.290281,-0.06901 -4.926788,-8.949152 -4.92679,-8.949153 -4.251713,-0.07468 -4.251712,-0.07468 0,-0.812931 0,-0.81293 4.788632,0.07405 4.788634,0.07405 4.850601,8.813559 c 2.667832,4.847458 5.336439,9.698305 5.930243,10.779661 l 1.079639,1.966102 -32.41379,0 c -17.827584,0 -32.41378973,-0.06843 -32.41378973,-0.152074 z"
   id="path4143"
   inkscape:connector-curvature="0" /><path
   style="fill:#ffffff;fill-opacity:1"
   d="M 29.55284,45.211037 C 22.508347,35.786791 18.111605,26.491354 18.121863,21.044068 18.135632,13.732392 23.395986,7.2915935 30.148321,6.3188215 c 6.839542,-0.9853356 13.340575,3.6805637 15.22695,10.9286365 1.380691,5.305059 -0.67321,12.212715 -6.290754,21.156998 -2.330215,3.71018 -6.727532,9.758256 -7.094844,9.758256 -0.126773,0 -1.223348,-1.328255 -2.436833,-2.951675 z M 34.295629,42.4 C 41.11267,32.849283 44.548197,24.873116 44.036398,19.785129 43.562047,15.069422 40.855097,11.007845 36.8834,9.0525849 35.375319,8.3101589 34.755957,8.1683583 32.611596,8.0745714 c -1.878575,-0.082162 -2.872341,0.00811 -3.959793,0.3597195 -3.996791,1.2922794 -6.948254,4.4945381 -8.240931,8.9411891 -0.676223,2.326127 -0.434271,6.340096 0.556235,9.22791 0.888046,2.589091 3.335973,7.513369 5.333128,10.728184 1.732077,2.788117 5.448134,8.11363 5.663859,8.116922 0.08466,0.0014 1.133849,-1.37053 2.331535,-3.048496 z"
   id="path4145"
   inkscape:connector-curvature="0" /><path
   style="fill:#ffffff;fill-opacity:1"
   d="M 31.619613,44.700903 C 29.700107,42.458397 25.378871,35.615086 23.44546,31.755932 19.796904,24.473293 19.280769,19.671423 21.633934,14.902369 23.948961,10.210608 28.262988,7.7814493 33.345903,8.3075498 39.49526,8.944031 44.243615,15.101428 43.800241,21.864141 c -0.316654,4.829862 -4.296431,13.100117 -10.141165,21.07405 -1.50832,2.057793 -1.668432,2.196176 -2.039463,1.762712 z"
   id="path4147"
   inkscape:connector-curvature="0" /><path
   style="fill:#ffffff;fill-opacity:1"
   d=""
   id="path4149"
   inkscape:connector-curvature="0" /><path
   style="fill:#ffffff;fill-opacity:1"
   d="M 29.982265,45.518644 C 25.329194,39.361812 21.031703,31.767529 19.355138,26.738983 18.443305,24.00411 18.139661,20.149269 18.644512,17.717415 19.507883,13.558577 22.778484,9.4190606 26.6558,7.5777313 c 1.845052,-0.8762109 2.39263,-1.0058594 4.705936,-1.114209 2.188314,-0.1024954 2.902145,-0.026243 4.349876,0.4646614 6.563027,2.2254244 10.656304,8.8020853 9.780016,15.7135363 -0.736734,5.810777 -4.668678,13.649911 -11.393618,22.715508 -1.03398,1.393864 -1.979517,2.534297 -2.101193,2.534297 -0.121676,0 -1.028224,-1.067796 -2.014552,-2.372881 z M 33.695593,43.44618 C 40.27939,34.543561 44.148056,26.148491 44.144034,20.772881 44.140406,15.92337 41.149895,11.003143 36.962712,8.9576 35.427711,8.2077138 35.143681,8.1627119 31.945763,8.1627119 c -3.204371,0 -3.471433,0.042554 -4.881356,0.7778031 -4.625526,2.412127 -7.050848,6.523721 -7.050848,11.953145 0,3.453573 0.707316,5.974722 2.963534,10.563188 2.496885,5.07791 8.221687,13.993999 8.985204,13.993999 0.137926,0 0.917909,-0.902099 1.733296,-2.004667 z"
   id="path4151"
   inkscape:connector-curvature="0" /><path
   style="fill:#ff6600;fill-opacity:1"
   d="M 29.548306,44.933784 C 25.056772,38.924933 20.834802,31.377295 19.294716,26.60339 18.451892,23.990834 18.162682,20.038373 18.644512,17.717415 19.719104,12.541131 24.367533,7.6895006 29.257139,6.640868 c 2.007655,-0.430565 5.491134,-0.1658716 7.317852,0.5560496 4.585814,1.812319 8.201623,6.5412734 8.930373,11.6796344 0.874148,6.163542 -2.983306,15.110328 -11.428417,26.506499 -1.022396,1.379661 -1.962146,2.508474 -2.088336,2.508474 -0.126189,0 -1.224326,-1.330983 -2.440305,-2.957741 z M 34.402867,42.4 C 41.631646,32.425798 45.035924,23.765561 43.891741,18.260995 43.096254,14.433975 40.260639,10.63943 36.953386,8.9762712 35.424078,8.2072095 35.157363,8.1627119 32.076964,8.1627119 c -3.143629,0 -3.323358,0.031843 -5.092781,0.9023048 -3.086986,1.5186323 -5.21223,4.0447663 -6.436324,7.6504183 -0.520729,1.533844 -0.577366,2.141252 -0.454192,4.871006 0.169026,3.745907 0.707462,5.472815 3.330812,10.682825 2.233344,4.435447 7.888053,13.181581 8.522397,13.181581 0.134693,0 1.239889,-1.372881 2.455991,-3.050847 z"
   id="path4153"
   inkscape:connector-curvature="0" /><path
   style="fill:#ff6600;fill-opacity:1"
   d="m 42.132823,57.939356 22.391953,-0.01113 -0.626323,-1.141649 c -0.344478,-0.627907 -3.01281,-5.478869 -5.929626,-10.779916 l -5.303301,-9.638267 -0.397747,-0.0246 c -0.218761,-0.01353 -2.177668,-0.04501 -4.353126,-0.06994 -2.175459,-0.02494 -4.159225,-0.05651 -4.408369,-0.07016 l -0.452991,-0.02482 0,0.842645 0,0.842645 0.475088,0.0046 c 0.261298,0.0025 1.718048,0.02919 3.237223,0.05924 l 2.762136,0.05464 -3.25932,0.0071 -3.259321,0.0071 0,-0.994369 0,-0.994369 4.78402,0.0012 4.784019,0.0012 6.021456,10.95272 c 3.311801,6.023996 6.021456,10.965491 6.021456,10.981099 0,0.01561 -10.097816,0.02343 -22.439591,0.01738 l -22.439592,-0.01101 22.391956,-0.01114 z"
   id="path4155"
   inkscape:connector-curvature="0" /><path
   style="fill:#ff6600;fill-opacity:1"
   d="M 31.617283,47.769215 C 30.94615,47.008833 29.819024,45.555338 28.682815,43.985046 25.296631,39.305185 22.544199,34.657736 20.712892,30.52792 20.164509,29.291253 19.75834,28.260834 19.772219,28.141506 c 0.0092,-0.07867 0.06609,0.02489 0.198067,0.360227 0.535648,1.36104 1.741401,3.884033 2.733191,5.719101 2.026601,3.749737 4.330357,7.360892 6.849397,10.736484 1.257788,1.685475 2.293403,2.938912 2.428187,2.938912 0.319979,0 3.729918,-4.589206 5.985838,-8.055935 3.887329,-5.973754 6.218769,-10.921252 7.225855,-15.333831 0.02579,-0.113016 0.158637,-0.176984 0.158637,-0.07639 0,0.02483 -0.109636,0.475541 -0.243635,1.00158 -0.962636,3.779003 -2.977875,8.084932 -6.116876,13.069834 -2.305976,3.662011 -6.638516,9.615711 -6.997406,9.615711 -0.03798,0 -0.207262,-0.156594 -0.376191,-0.347986 z"
   id="path4157"
   inkscape:connector-curvature="0" /><path
   style="fill:#ff6600;fill-opacity:1"
   d="M 31.225087,47.618213 C 26.997405,42.325238 22.849773,35.763067 20.656059,30.896439 c -0.625691,-1.38806 -0.893284,-2.080957 -0.891481,-2.308377 0.0015,-0.189371 0.02428,-0.147806 0.326772,0.596318 1.950511,4.79817 5.282787,10.4579 9.416726,15.993909 1.380659,1.848924 2.330751,2.983107 2.498913,2.983107 0.265008,0 2.647169,-3.144442 5.156005,-6.805903 1.616573,-2.359269 3.019507,-4.628922 4.275207,-6.916388 0.438968,-0.799655 1.530421,-3.006062 1.880109,-3.800699 0.857566,-1.948754 1.57324,-4.036315 1.965842,-5.734194 0.110178,-0.476485 0.128402,-0.519282 0.221116,-0.519282 l 0.101043,0 -0.106091,0.45299 c -1.220002,5.209195 -4.940935,12.254869 -10.39198,19.677456 -1.188206,1.617959 -3.059502,4.002171 -3.137726,3.997769 -0.01763,-9.9e-4 -0.353073,-0.403712 -0.745427,-0.894932 z"
   id="path4159"
   inkscape:connector-curvature="0" /><path
   style="fill:#ff6600;fill-opacity:1"
   d=""
   id="path4161"
   inkscape:connector-curvature="0" /><path
   style="fill:#ff6600;fill-opacity:1"
   d="m 31.36117,44.533798 c -0.642873,-0.854512 -0.796329,-1.1435 -0.204589,-0.385281 0.195411,0.250386 0.401555,0.508064 0.458099,0.572618 0.347556,0.396789 0.553766,0.244706 1.641807,-1.210855 0.913149,-1.221593 1.65645,-2.281126 2.658807,-3.789972 1.93767,-2.916774 3.281669,-5.226897 4.640941,-7.977048 1.339954,-2.711065 2.107069,-4.667126 2.786083,-7.104213 0.04396,-0.157781 0.09474,-0.254117 0.133956,-0.254117 0.09067,0 0.08425,0.03961 -0.134557,0.830636 -1.271772,4.597623 -4.483732,10.63411 -9.081732,17.068004 -0.711257,0.995249 -2.246252,3.049398 -2.27871,3.049398 -0.01038,0 -0.289424,-0.359626 -0.620105,-0.79917 z"
   id="path4163"
   inkscape:connector-curvature="0" /><path
   style="fill:#ff6600;fill-opacity:1"
   d="m 35.275119,41.070805 c 0,-0.01361 0.3056,-0.477161 0.679112,-1.030123 1.181194,-1.748687 2.474833,-3.828689 3.34061,-5.371264 0.201751,-0.359464 0.376995,-0.643396 0.389431,-0.63096 0.05244,0.05244 -1.235299,2.25778 -2.324223,3.980375 -0.521348,0.824732 -1.991933,3.019236 -2.045401,3.052281 -0.02174,0.01344 -0.03953,0.0133 -0.03953,-3.09e-4 z"
   id="path4165"
   inkscape:connector-curvature="0" /><path
   style="fill:#ff6600;fill-opacity:1"
   d=""
   id="path4167"
   inkscape:connector-curvature="0" /><path
   style="fill:#ff6600;fill-opacity:1"
   d=""
   id="path4169"
   inkscape:connector-curvature="0" /><path
   style="fill:#ff6600;fill-opacity:1"
   d=""
   id="path4171"
   inkscape:connector-curvature="0" /><path
   style="fill:#ff6600;fill-opacity:1"
   d="m 56.37443,46.984458 c -2.69618,-4.901005 -4.908776,-8.928199 -4.916878,-8.94932 -0.243311,-0.634268 3.323384,5.769795 9.752261,17.510355 0.131617,0.240362 0.172052,0.349883 0.129177,0.349883 -0.03734,0 -2.031801,-3.579871 -4.96456,-8.910918 z"
   id="path4173"
   inkscape:connector-curvature="0" /><path
   style="fill:#ff6600;fill-opacity:1"
   d="M -0.52349121,57.740483 C -0.45215684,57.612872 2.2663648,52.670859 5.5176679,46.75823 l 5.9114601,-10.750232 4.768535,0 4.768535,0 0,0.994145 0,0.994146 -4.205671,0.01127 -4.205671,0.01127 -4.3085169,7.833973 C 5.8766545,50.161491 3.928243,53.6772 3.9165351,53.665492 3.8766039,53.625561 5.6968775,50.26515 10.338497,41.809891 l 2.164517,-3.942922 4.165301,-0.0014 4.165301,-0.0014 0,-0.817592 0,-0.817592 -4.717728,0.0012 -4.717728,0.0012 -3.1587435,5.75506 c -5.156378,9.394643 -7.96404622,14.547963 -8.41712162,15.449161 -0.0898487,0.178716 -0.15241342,0.335885 -0.13903273,0.349266 0.0522117,0.05221 5.87797855,0.103711 15.55979085,0.137548 l 10.120466,0.03537 -13.008355,0.0073 -13.00835406,0.0073 0.12969885,-0.232019 z"
   id="path4175"
   inkscape:connector-curvature="0" /><path
   style="fill:#ff6600;fill-opacity:1"
   d="m 31.304491,44.815456 c -0.588369,-0.707942 -2.578346,-3.560032 -2.522731,-3.615648 0.01222,-0.01222 0.108592,0.102327 0.214154,0.254556 0.874716,1.26141 1.598106,2.283372 2.021343,2.855634 0.487173,0.65871 0.644078,0.934823 0.287234,0.505458 z"
   id="path4177"
   inkscape:connector-curvature="0" /><path
   style="fill:#ff6600;fill-opacity:1"
   d=""
   id="path4179"
   inkscape:connector-curvature="0" /><path
   style="fill:#ff6600;fill-opacity:1"
   d=""
   id="path4181"
   inkscape:connector-curvature="0" /><path
   style="fill:#ff6600;fill-opacity:1"
   d="m 31.974189,48.149579 c -0.05067,-0.02444 -0.109995,-0.07687 -0.225033,-0.198881 -0.3693,-0.39168 -1.073665,-1.262219 -1.882881,-2.327091 -0.102659,-0.135092 -0.327223,-0.433764 -0.379609,-0.504883 l -0.0223,-0.03027 0.01366,0 c 0.01342,0 0.01566,0.0027 0.125794,0.149415 0.781272,1.041017 1.499969,1.947286 1.969402,2.483398 0.192212,0.219515 0.366405,0.385891 0.415253,0.396619 0.08242,0.0181 0.464789,-0.399694 1.077992,-1.177869 0.365481,-0.463808 0.889244,-1.155201 1.321913,-1.74499 l 0.07799,-0.106317 0.01511,-1.28e-4 0.01511,-1.28e-4 -0.0096,0.0127 c -0.0053,0.007 -0.0588,0.07949 -0.118904,0.161133 -0.816031,1.108504 -1.525489,2.020223 -1.934612,2.486157 -0.09289,0.105784 -0.139805,0.156439 -0.218462,0.235857 -0.08111,0.0819 -0.129381,0.124901 -0.171928,0.153172 -0.03343,0.02221 -0.04406,0.02408 -0.06887,0.01211 z"
   id="path4183"
   inkscape:connector-curvature="0" /><path
   style="fill:#ff6600;fill-opacity:1"
   d="m 31.608954,48.12701 c -0.621595,-0.7647 -0.800007,-0.989537 -1.272019,-1.603013 -0.308937,-0.401525 -1.049744,-1.385553 -1.077049,-1.430664 -0.0021,-0.0035 3.02e-4,-0.0049 0.0082,-0.0049 0.0095,0 0.01486,0.0051 0.03624,0.03418 0.122887,0.167406 0.526903,0.704851 0.737786,0.981445 0.744348,0.976289 1.656381,2.120899 1.901409,2.386288 0.01925,0.02085 0.02448,0.0245 0.03179,0.02218 0.01101,-0.0035 0.08339,-0.07738 0.144945,-0.147983 0.395944,-0.45407 1.442265,-1.786834 2.394129,-3.049551 0.106257,-0.140959 0.172129,-0.225074 0.176872,-0.225858 0.006,-9.94e-4 0.0076,0.0011 0.0076,0.01008 0,0.0146 -0.394581,0.541694 -0.858954,1.147416 -0.326343,0.425677 -0.60848,0.786413 -0.903188,1.1548 -0.149281,0.186602 -0.955541,1.172806 -0.959873,1.1741 -0.0014,4.26e-4 -0.16695,-0.201419 -0.367829,-0.448544 z"
   id="path4185"
   inkscape:connector-curvature="0" /><path
   style="fill:#ff6600;fill-opacity:1"
   d="m 31.940985,47.876672 c -0.08894,-0.06179 -0.287833,-0.27086 -0.54731,-0.575331 -0.404281,-0.474384 -1.061756,-1.308313 -1.644723,-2.086136 -0.09662,-0.128915 -0.09509,-0.126755 -0.08999,-0.126755 0.002,0 0.037,0.04438 0.07782,0.09863 1.006321,1.337195 1.958313,2.4959 2.200679,2.678528 0.03222,0.02428 0.03496,0.0329 0.0035,0.01106 z"
   id="path4187"
   inkscape:connector-curvature="0" /><path
   style="fill:#ff6600;fill-opacity:1"
   d="m 32.230183,47.692365 c -7.4e-5,-0.0019 0.01437,-0.01863 0.0321,-0.03711 0.129319,-0.134793 0.389907,-0.440117 0.654815,-0.76723 0.05012,-0.06189 0.092,-0.111668 0.09306,-0.110608 0.0033,0.0033 -0.26486,0.333646 -0.409361,0.504392 -0.168662,0.199294 -0.370156,0.422502 -0.370617,0.410555 z"
   id="path4189"
   inkscape:connector-curvature="0" /><path
   style="fill:#ff6600;fill-opacity:1"
   d=""
   id="path4191"
   inkscape:connector-curvature="0" /><path
   style="fill:#ff6600;fill-opacity:1"
   d="m 32.069892,48.126038 c 0,-8.11e-4 0.01011,-0.0098 0.02246,-0.01988 0.299719,-0.245585 1.150685,-1.308556 2.329061,-2.909311 0.05292,-0.07189 0.08215,-0.108399 0.08679,-0.108399 0.0038,0 0.007,0.001 0.007,0.0023 0,0.0013 -0.04427,0.06235 -0.09839,0.135742 -1.036614,1.405936 -1.811272,2.383929 -2.186725,2.760706 -0.08461,0.0849 -0.160201,0.150418 -0.160201,0.138836 z"
   id="path4193"
   inkscape:connector-curvature="0" /><path
   style="fill:#ff6600;fill-opacity:1"
   d="m 31.664713,47.874739 c -0.368311,-0.389671 -0.946833,-1.103154 -1.741378,-2.147617 -0.02778,-0.03652 -0.146973,-0.194726 -0.264864,-0.351562 -0.15964,-0.212375 -0.212648,-0.285499 -0.207689,-0.286499 0.0037,-7.39e-4 0.008,1.4e-4 0.0097,0.002 0.0017,0.0018 0.06683,0.08855 0.14481,0.192749 0.802892,1.072799 1.636303,2.117471 2.057758,2.579379 0.03297,0.03614 0.05913,0.06653 0.05812,0.06754 -0.001,0.001 -0.02641,-0.02417 -0.05644,-0.05594 z"
   id="path4195"
   inkscape:connector-curvature="0" /><path
   style="fill:#ff6600;fill-opacity:1"
   d="m 19.696227,28.093039 c -0.914261,-2.56194 -1.323486,-4.176965 -1.510263,-5.960326 -0.04931,-0.470817 -0.04923,-1.775755 1.37e-4,-2.3125 0.247406,-2.689802 1.089748,-5.098822 2.55144,-7.296875 0.824741,-1.240224 1.763607,-2.293532 2.858448,-3.2068765 2.051661,-1.7115488 4.370893,-2.7201244 7,-3.0441246 0.521223,-0.064234 1.90341,-0.073239 2.5,-0.016288 3.19111,0.3046236 6.039459,1.6874121 8.379432,4.0679645 0.491986,0.500518 0.608075,0.630807 1.007399,1.130621 1.766372,2.210884 2.948683,5.058386 3.220453,7.756204 0.138128,1.371175 0.07916,2.734896 -0.187148,4.328125 -0.143499,0.858501 -0.139438,0.843218 -0.224824,0.846232 -0.08465,0.003 -0.08396,0.02449 -0.01068,-0.334979 0.0878,-0.43071 0.211896,-1.227201 0.274402,-1.761253 0.07834,-0.669397 0.07892,-2.575657 9.53e-4,-3.147628 -0.138568,-1.016505 -0.330801,-1.849137 -0.647718,-2.805497 -0.36303,-1.095513 -0.81776,-2.082483 -1.42792,-3.09923 C 42.80862,12.117287 42.11176,11.227119 41.158789,10.271066 39.980808,9.0892757 38.912272,8.3068867 37.53705,7.6192063 36.649597,7.1754346 35.98939,6.9468437 35.05714,6.7605587 33.968953,6.5431137 33.195856,6.4621982 31.986614,6.4391849 c -1.340519,-0.025512 -2.113278,0.040374 -3.006605,0.2563443 -4.301448,1.0399161 -8.44835,5.0458398 -9.963398,9.6246838 -0.302062,0.912906 -0.448471,1.579571 -0.552466,2.515625 -0.06297,0.566763 -0.05187,2.807825 0.01741,3.515625 0.142735,1.45825 0.36438,2.736335 0.650323,3.75 0.109844,0.389395 0.450797,1.401823 0.590654,1.753893 0.0804,0.202409 0.08699,0.240162 0.04858,0.278575 -0.03841,0.03841 -0.04856,0.03287 -0.07488,-0.04089 z"
   id="path4197"
   inkscape:connector-curvature="0" /><path
   style="fill:#ff6600;fill-opacity:1"
   d="m 19.563882,28.281151 c -1.149691,-3.087419 -1.640126,-5.642755 -1.529404,-7.968722 0.185427,-3.895288 1.678048,-7.421864 4.280261,-10.112858 2.130974,-2.2036781 4.866848,-3.6213378 7.8125,-4.0482365 1.200732,-0.1740162 2.555665,-0.1741747 3.748167,-4.386e-4 2.852108,0.4155252 5.483495,1.7476666 7.592772,3.8438468 2.332742,2.3182573 3.859867,5.3881283 4.343674,8.7317813 0.126529,0.874457 0.142929,1.137879 0.142988,2.296814 6.3e-5,1.215731 -0.02328,1.52666 -0.187715,2.5 -0.149021,0.882115 -0.135346,0.836383 -0.254249,0.850264 -0.121248,0.01415 -0.121087,0.0149 -0.05983,-0.277908 0.258386,-1.23511 0.395464,-2.94129 0.332464,-4.138132 -0.0704,-1.33741 -0.25856,-2.365868 -0.659754,-3.606099 -0.995366,-3.077024 -2.81754,-5.663246 -5.29547,-7.5158886 C 39.167261,8.3398593 38.571369,7.9728258 37.799114,7.5844939 36.248982,6.8050041 34.795628,6.3873955 33.064739,6.2241132 c -0.65202,-0.061508 -1.936422,-0.045309 -2.5625,0.032319 -2.596392,0.3219268 -4.897212,1.3407747 -7.015625,3.1066548 -0.410808,0.3424441 -1.426279,1.3674422 -1.784138,1.8008762 -0.823465,0.997373 -1.428546,1.934454 -1.99766,3.09375 -0.524408,1.06823 -0.860609,1.988568 -1.139072,3.118169 -0.528184,2.142609 -0.592071,4.080836 -0.204176,6.194331 0.228538,1.245217 0.758511,3.076214 1.314643,4.541943 0.09469,0.249566 0.126244,0.368211 0.101919,0.383244 -0.02278,0.01408 -0.02827,0.07255 -0.01553,0.165481 0.01083,0.07904 0.01441,0.143707 0.008,0.143707 -0.0065,0 -0.09946,-0.235547 -0.206664,-0.523437 z"
   id="path4199"
   inkscape:connector-curvature="0" /><path
   style="fill:#ff6600;fill-opacity:1"
   d=""
   id="path4201"
   inkscape:connector-curvature="0" /><path
   style="fill:#ff6600;fill-opacity:1"
   d=""
   id="path4203"
   inkscape:connector-curvature="0" /><path
   style="fill:#ff6600;fill-opacity:1"
   d="m 36.580364,8.9754707 c -0.351592,-0.1687578 -1.025893,-0.4168744 -1.53125,-0.5634408 -0.496589,-0.1440232 -0.526331,-0.177706 -0.0673,-0.076219 0.480364,0.1062044 1.275319,0.4092209 1.786052,0.6807974 0.200213,0.1064612 0.05248,0.074048 -0.1875,-0.041138 z"
   id="path4205"
   inkscape:connector-curvature="0" /><path
   style="fill:#ff6600;fill-opacity:1"
   d="M 38.313567,9.8814626 C 37.858131,9.5719043 37.396514,9.3044206 36.865305,9.042269 35.84501,8.5387528 35.274587,8.3444488 34.446379,8.2183062 c -0.08908,-0.013568 -0.07284,-0.014694 0.06055,-0.0042 0.735764,0.057899 1.178615,0.1695416 1.8125,0.4569325 0.183846,0.083352 0.584117,0.2794808 0.777344,0.380891 0.425428,0.2232746 0.842268,0.4803879 1.257092,0.775395 l 0.06317,0.044922 3.9e-5,0.038086 c 0,0.020947 -0.0013,0.037955 -0.0029,0.037795 -0.0016,-1.602e-4 -0.04687,-0.03016 -0.100586,-0.066668 l -1.2e-5,0 z"
   id="path4207"
   inkscape:connector-curvature="0" /><path
   style="fill:#ff6600;fill-opacity:1"
   d="M 38.354582,9.9770432 C 38.053196,9.770192 37.677727,9.5414312 37.335051,9.3558774 37.152101,9.2568125 36.896038,9.1276417 36.73251,9.0519262 c -0.03169,-0.014673 -0.05687,-0.027427 -0.05595,-0.028343 9.15e-4,-9.155e-4 0.02333,0.00711 0.04981,0.017832 0.07996,0.032383 0.136033,0.047466 0.136033,0.036593 0,-0.010635 -0.04574,-0.038476 -0.160156,-0.097479 -0.414676,-0.2138464 -1.028307,-0.4557041 -1.489854,-0.5872132 -0.227578,-0.064844 -0.557021,-0.1318116 -0.557021,-0.113228 0,0.00693 0.03577,0.02175 0.11914,0.049356 0.07117,0.023566 0.102504,0.033145 0.3125,0.095529 0.176088,0.052311 0.590493,0.1875695 0.611328,0.1995331 0.015,0.00861 -0.01016,0.00123 -0.09246,-0.027121 -0.441155,-0.151985 -0.898988,-0.2761029 -1.393865,-0.3778747 -0.122251,-0.025141 -0.136031,-0.028666 -0.105468,-0.026976 0.01934,0.00107 0.07295,0.00384 0.11914,0.00616 0.04836,0.00243 0.118778,0.00912 0.166016,0.015783 0.743996,0.1048785 1.29147,0.2751678 2.105469,0.6548961 0.570994,0.2663675 1.009842,0.5022536 1.464843,0.787371 0.154967,0.097107 0.432573,0.2803353 0.450372,0.2972587 0.0035,0.00333 0.0047,0.014017 0.0039,0.0347 l -0.0012,0.02989 -0.06055,-0.041555 z"
   id="path4209"
   inkscape:connector-curvature="0" /><path
   style="fill:#ff6600;fill-opacity:1"
   d="m 44.082339,20.45954 c -0.03603,-1.497455 -0.476839,-3.422186 -1.117921,-4.881212 -0.115813,-0.263575 -0.148023,-0.358992 -0.07644,-0.226423 0.148784,0.27552 0.445784,1.010646 0.621548,1.538437 0.318414,0.956149 0.487244,1.77805 0.560288,2.72761 0.01977,0.256995 0.0446,1.251592 0.03125,1.251592 -0.0049,0 -0.01331,-0.184502 -0.01873,-0.410004 z"
   id="path4211"
   inkscape:connector-curvature="0" /><path
   style="fill:#ff6600;fill-opacity:1"
   d="m 42.622539,27.52025 c 0.110096,-0.285739 0.361641,-1.01504 0.477836,-1.385384 0.51108,-1.628942 0.797093,-3.040796 0.884793,-4.367627 0.02556,-0.386754 0.01053,-1.456335 -0.0262,-1.864442 -0.16168,-1.796297 -0.588609,-3.371592 -1.333193,-4.919255 -0.643108,-1.336736 -1.468816,-2.501085 -2.516992,-3.549261 -0.461161,-0.46116 -0.784806,-0.745146 -1.284605,-1.12719 -0.09702,-0.07416 -0.148783,-0.123552 -0.129476,-0.123541 0.0749,4.4e-5 0.845448,0.638975 1.286371,1.066643 1.475878,1.431512 2.589714,3.181491 3.302002,5.187866 0.402642,1.13416 0.686229,2.483373 0.771075,3.668508 0.02619,0.365867 0.0106,1.448853 -0.02626,1.824673 -0.150768,1.536889 -0.49443,3.051035 -1.095143,4.825107 -0.209127,0.617611 -0.315113,0.897694 -0.339698,0.897694 -0.01537,0 -0.0064,-0.04059 0.02949,-0.133791 z"
   id="path4213"
   inkscape:connector-curvature="0" /></svg>